solid OpenSCAD_Model
  facet normal 0 0 -1
    outer loop
      vertex 47.314 -74.4901 0
      vertex 52 -69.5 0
      vertex 51.9606 -70.1267 0
    endloop
  endfacet
  facet normal 0 0 -1
    outer loop
      vertex 52 -69.5 0
      vertex -52 -69.5 0
      vertex 52 69.5 0
    endloop
  endfacet
  facet normal 0 0 -1
    outer loop
      vertex 47.314 -74.4901 0
      vertex 51.9606 -70.1267 0
      vertex 51.8429 -70.7434 0
    endloop
  endfacet
  facet normal 0 0 -1
    outer loop
      vertex -52 69.5 0
      vertex 52 69.5 0
      vertex -52 -69.5 0
    endloop
  endfacet
  facet normal 0 0 -1
    outer loop
      vertex 47.314 -74.4901 0
      vertex 51.8429 -70.7434 0
      vertex 51.6489 -71.3406 0
    endloop
  endfacet
  facet normal 0 -0 -1
    outer loop
      vertex 47.314 74.4901 0
      vertex 52 69.5 0
      vertex -52 69.5 0
    endloop
  endfacet
  facet normal 0 0 -1
    outer loop
      vertex 47.314 -74.4901 0
      vertex 51.6489 -71.3406 0
      vertex 51.3815 -71.9088 0
    endloop
  endfacet
  facet normal -0 0 -1
    outer loop
      vertex 52 -69.5 0
      vertex 47.314 -74.4901 0
      vertex -52 -69.5 0
    endloop
  endfacet
  facet normal 0 0 -1
    outer loop
      vertex 47.314 -74.4901 0
      vertex 51.3815 -71.9088 0
      vertex 51.0451 -72.4389 0
    endloop
  endfacet
  facet normal 0 0 -1
    outer loop
      vertex 52 69.5 0
      vertex 47.314 74.4901 0
      vertex 51.9606 70.1267 0
    endloop
  endfacet
  facet normal 0 0 -1
    outer loop
      vertex 47.314 -74.4901 0
      vertex 51.0451 -72.4389 0
      vertex 50.6448 -72.9227 0
    endloop
  endfacet
  facet normal 0 0 -1
    outer loop
      vertex 51.6489 71.3406 0
      vertex 47.314 74.4901 0
      vertex 51.3815 71.9088 0
    endloop
  endfacet
  facet normal 0 0 -1
    outer loop
      vertex 47.314 -74.4901 0
      vertex 50.6448 -72.9227 0
      vertex 50.1871 -73.3526 0
    endloop
  endfacet
  facet normal 0 0 -1
    outer loop
      vertex 51.3815 71.9088 0
      vertex 47.314 74.4901 0
      vertex 51.0451 72.4389 0
    endloop
  endfacet
  facet normal 0 0 -1
    outer loop
      vertex 47.314 -74.4901 0
      vertex 50.1871 -73.3526 0
      vertex 49.6791 -73.7216 0
    endloop
  endfacet
  facet normal 0 0 -1
    outer loop
      vertex 51.0451 72.4389 0
      vertex 47.314 74.4901 0
      vertex 50.6448 72.9227 0
    endloop
  endfacet
  facet normal 0 0 -1
    outer loop
      vertex 47.314 -74.4901 0
      vertex 49.6791 -73.7216 0
      vertex 49.1289 -74.0241 0
    endloop
  endfacet
  facet normal 0 0 -1
    outer loop
      vertex 50.6448 72.9227 0
      vertex 47.314 74.4901 0
      vertex 50.1871 73.3526 0
    endloop
  endfacet
  facet normal 0 0 -1
    outer loop
      vertex 47.314 -74.4901 0
      vertex 49.1289 -74.0241 0
      vertex 48.5451 -74.2553 0
    endloop
  endfacet
  facet normal 0 0 -1
    outer loop
      vertex 50.1871 73.3526 0
      vertex 47.314 74.4901 0
      vertex 49.6791 73.7216 0
    endloop
  endfacet
  facet normal 0 0 -1
    outer loop
      vertex 47.314 -74.4901 0
      vertex 48.5451 -74.2553 0
      vertex 47.9369 -74.4114 0
    endloop
  endfacet
  facet normal 0 0 -1
    outer loop
      vertex 49.6791 73.7216 0
      vertex 47.314 74.4901 0
      vertex 49.1289 74.0241 0
    endloop
  endfacet
  facet normal 0 0 -1
    outer loop
      vertex 49.1289 74.0241 0
      vertex 47.314 74.4901 0
      vertex 48.5451 74.2553 0
    endloop
  endfacet
  facet normal 0 0 -1
    outer loop
      vertex 48.5451 74.2553 0
      vertex 47.314 74.4901 0
      vertex 47.9369 74.4114 0
    endloop
  endfacet
  facet normal 0 0 -1
    outer loop
      vertex -52 -69.5 0
      vertex 47.314 -74.4901 0
      vertex -47.314 -74.4901 0
    endloop
  endfacet
  facet normal 0 0 -1
    outer loop
      vertex 51.9606 70.1267 0
      vertex 47.314 74.4901 0
      vertex 51.8429 70.7434 0
    endloop
  endfacet
  facet normal 0 0 -1
    outer loop
      vertex -52 -69.5 0
      vertex -47.314 -74.4901 0
      vertex -47.9369 -74.4114 0
    endloop
  endfacet
  facet normal 0 0 -1
    outer loop
      vertex 51.8429 70.7434 0
      vertex 47.314 74.4901 0
      vertex 51.6489 71.3406 0
    endloop
  endfacet
  facet normal 0 0 -1
    outer loop
      vertex -52 -69.5 0
      vertex -47.9369 -74.4114 0
      vertex -48.5451 -74.2553 0
    endloop
  endfacet
  facet normal -0 0 -1
    outer loop
      vertex 47.314 74.4901 0
      vertex -52 69.5 0
      vertex -47.314 74.4901 0
    endloop
  endfacet
  facet normal 0 0 -1
    outer loop
      vertex -52 -69.5 0
      vertex -48.5451 -74.2553 0
      vertex -49.1289 -74.0241 0
    endloop
  endfacet
  facet normal 0 0 -1
    outer loop
      vertex -47.314 74.4901 0
      vertex -52 69.5 0
      vertex -47.9369 74.4114 0
    endloop
  endfacet
  facet normal 0 0 -1
    outer loop
      vertex -52 -69.5 0
      vertex -49.1289 -74.0241 0
      vertex -49.6791 -73.7216 0
    endloop
  endfacet
  facet normal 0 0 -1
    outer loop
      vertex -47.9369 74.4114 0
      vertex -52 69.5 0
      vertex -48.5451 74.2553 0
    endloop
  endfacet
  facet normal 0 0 -1
    outer loop
      vertex -52 -69.5 0
      vertex -49.6791 -73.7216 0
      vertex -50.1871 -73.3526 0
    endloop
  endfacet
  facet normal 0 0 -1
    outer loop
      vertex -48.5451 74.2553 0
      vertex -52 69.5 0
      vertex -49.1289 74.0241 0
    endloop
  endfacet
  facet normal 0 0 -1
    outer loop
      vertex -52 -69.5 0
      vertex -50.1871 -73.3526 0
      vertex -50.6448 -72.9227 0
    endloop
  endfacet
  facet normal 0 0 -1
    outer loop
      vertex -49.1289 74.0241 0
      vertex -52 69.5 0
      vertex -49.6791 73.7216 0
    endloop
  endfacet
  facet normal 0 0 -1
    outer loop
      vertex -52 -69.5 0
      vertex -50.6448 -72.9227 0
      vertex -51.0451 -72.4389 0
    endloop
  endfacet
  facet normal 0 0 -1
    outer loop
      vertex -49.6791 73.7216 0
      vertex -52 69.5 0
      vertex -50.1871 73.3526 0
    endloop
  endfacet
  facet normal 0 0 -1
    outer loop
      vertex -52 -69.5 0
      vertex -51.0451 -72.4389 0
      vertex -51.3815 -71.9088 0
    endloop
  endfacet
  facet normal 0 0 -1
    outer loop
      vertex -50.1871 73.3526 0
      vertex -52 69.5 0
      vertex -50.6448 72.9227 0
    endloop
  endfacet
  facet normal 0 0 -1
    outer loop
      vertex -52 -69.5 0
      vertex -51.3815 -71.9088 0
      vertex -51.6489 -71.3406 0
    endloop
  endfacet
  facet normal 0 0 -1
    outer loop
      vertex -50.6448 72.9227 0
      vertex -52 69.5 0
      vertex -51.0451 72.4389 0
    endloop
  endfacet
  facet normal 0 0 -1
    outer loop
      vertex -52 -69.5 0
      vertex -51.6489 -71.3406 0
      vertex -51.8429 -70.7434 0
    endloop
  endfacet
  facet normal 0 0 -1
    outer loop
      vertex -51.0451 72.4389 0
      vertex -52 69.5 0
      vertex -51.3815 71.9088 0
    endloop
  endfacet
  facet normal 0 0 -1
    outer loop
      vertex -52 -69.5 0
      vertex -51.8429 -70.7434 0
      vertex -51.9606 -70.1267 0
    endloop
  endfacet
  facet normal 0 0 -1
    outer loop
      vertex -51.3815 71.9088 0
      vertex -52 69.5 0
      vertex -51.6489 71.3406 0
    endloop
  endfacet
  facet normal 0 0 -1
    outer loop
      vertex -51.6489 71.3406 0
      vertex -52 69.5 0
      vertex -51.8429 70.7434 0
    endloop
  endfacet
  facet normal 0 0 -1
    outer loop
      vertex -51.8429 70.7434 0
      vertex -52 69.5 0
      vertex -51.9606 70.1267 0
    endloop
  endfacet
  facet normal 0 0 1
    outer loop
      vertex 47.314 74.4901 3
      vertex 52 69.5 3
      vertex 51.9606 70.1267 3
    endloop
  endfacet
  facet normal 0 0 1
    outer loop
      vertex 52 69.5 3
      vertex -52 69.5 3
      vertex 52 -69.5 3
    endloop
  endfacet
  facet normal 0 0 1
    outer loop
      vertex 47.314 74.4901 3
      vertex 51.9606 70.1267 3
      vertex 51.8429 70.7434 3
    endloop
  endfacet
  facet normal 0 0 1
    outer loop
      vertex -52 -69.5 3
      vertex 52 -69.5 3
      vertex -52 69.5 3
    endloop
  endfacet
  facet normal 0 0 1
    outer loop
      vertex 47.314 74.4901 3
      vertex 51.8429 70.7434 3
      vertex 51.6489 71.3406 3
    endloop
  endfacet
  facet normal 0 -0 1
    outer loop
      vertex 47.314 -74.4901 3
      vertex 52 -69.5 3
      vertex -52 -69.5 3
    endloop
  endfacet
  facet normal 0 0 1
    outer loop
      vertex 47.314 74.4901 3
      vertex 51.6489 71.3406 3
      vertex 51.3815 71.9088 3
    endloop
  endfacet
  facet normal 0 0 1
    outer loop
      vertex 52 69.5 3
      vertex 47.314 74.4901 3
      vertex -52 69.5 3
    endloop
  endfacet
  facet normal 0 0 1
    outer loop
      vertex 47.314 74.4901 3
      vertex 51.3815 71.9088 3
      vertex 51.0451 72.4389 3
    endloop
  endfacet
  facet normal 0 0 1
    outer loop
      vertex 52 -69.5 3
      vertex 47.314 -74.4901 3
      vertex 51.9606 -70.1267 3
    endloop
  endfacet
  facet normal 0 0 1
    outer loop
      vertex 47.314 74.4901 3
      vertex 51.0451 72.4389 3
      vertex 50.6448 72.9227 3
    endloop
  endfacet
  facet normal 0 0 1
    outer loop
      vertex 51.6489 -71.3406 3
      vertex 47.314 -74.4901 3
      vertex 51.3815 -71.9088 3
    endloop
  endfacet
  facet normal 0 0 1
    outer loop
      vertex 47.314 74.4901 3
      vertex 50.6448 72.9227 3
      vertex 50.1871 73.3526 3
    endloop
  endfacet
  facet normal 0 0 1
    outer loop
      vertex 51.3815 -71.9088 3
      vertex 47.314 -74.4901 3
      vertex 51.0451 -72.4389 3
    endloop
  endfacet
  facet normal 0 0 1
    outer loop
      vertex 47.314 74.4901 3
      vertex 50.1871 73.3526 3
      vertex 49.6791 73.7216 3
    endloop
  endfacet
  facet normal 0 0 1
    outer loop
      vertex 51.0451 -72.4389 3
      vertex 47.314 -74.4901 3
      vertex 50.6448 -72.9227 3
    endloop
  endfacet
  facet normal 0 0 1
    outer loop
      vertex 47.314 74.4901 3
      vertex 49.6791 73.7216 3
      vertex 49.1289 74.0241 3
    endloop
  endfacet
  facet normal 0 0 1
    outer loop
      vertex 50.6448 -72.9227 3
      vertex 47.314 -74.4901 3
      vertex 50.1871 -73.3526 3
    endloop
  endfacet
  facet normal 0 0 1
    outer loop
      vertex 47.314 74.4901 3
      vertex 49.1289 74.0241 3
      vertex 48.5451 74.2553 3
    endloop
  endfacet
  facet normal 0 0 1
    outer loop
      vertex 50.1871 -73.3526 3
      vertex 47.314 -74.4901 3
      vertex 49.6791 -73.7216 3
    endloop
  endfacet
  facet normal 0 0 1
    outer loop
      vertex 47.314 74.4901 3
      vertex 48.5451 74.2553 3
      vertex 47.9369 74.4114 3
    endloop
  endfacet
  facet normal 0 0 1
    outer loop
      vertex 49.6791 -73.7216 3
      vertex 47.314 -74.4901 3
      vertex 49.1289 -74.0241 3
    endloop
  endfacet
  facet normal 0 0 1
    outer loop
      vertex 49.1289 -74.0241 3
      vertex 47.314 -74.4901 3
      vertex 48.5451 -74.2553 3
    endloop
  endfacet
  facet normal 0 0 1
    outer loop
      vertex 48.5451 -74.2553 3
      vertex 47.314 -74.4901 3
      vertex 47.9369 -74.4114 3
    endloop
  endfacet
  facet normal 0 0 1
    outer loop
      vertex -52 69.5 3
      vertex 47.314 74.4901 3
      vertex -47.314 74.4901 3
    endloop
  endfacet
  facet normal 0 0 1
    outer loop
      vertex 51.9606 -70.1267 3
      vertex 47.314 -74.4901 3
      vertex 51.8429 -70.7434 3
    endloop
  endfacet
  facet normal 0 0 1
    outer loop
      vertex -52 69.5 3
      vertex -47.314 74.4901 3
      vertex -47.9369 74.4114 3
    endloop
  endfacet
  facet normal 0 0 1
    outer loop
      vertex 51.8429 -70.7434 3
      vertex 47.314 -74.4901 3
      vertex 51.6489 -71.3406 3
    endloop
  endfacet
  facet normal 0 0 1
    outer loop
      vertex -52 69.5 3
      vertex -47.9369 74.4114 3
      vertex -48.5451 74.2553 3
    endloop
  endfacet
  facet normal 0 0 1
    outer loop
      vertex 47.314 -74.4901 3
      vertex -52 -69.5 3
      vertex -47.314 -74.4901 3
    endloop
  endfacet
  facet normal 0 0 1
    outer loop
      vertex -52 69.5 3
      vertex -48.5451 74.2553 3
      vertex -49.1289 74.0241 3
    endloop
  endfacet
  facet normal 0 0 1
    outer loop
      vertex -47.314 -74.4901 3
      vertex -52 -69.5 3
      vertex -47.9369 -74.4114 3
    endloop
  endfacet
  facet normal 0 0 1
    outer loop
      vertex -52 69.5 3
      vertex -49.1289 74.0241 3
      vertex -49.6791 73.7216 3
    endloop
  endfacet
  facet normal 0 0 1
    outer loop
      vertex -47.9369 -74.4114 3
      vertex -52 -69.5 3
      vertex -48.5451 -74.2553 3
    endloop
  endfacet
  facet normal 0 0 1
    outer loop
      vertex -52 69.5 3
      vertex -49.6791 73.7216 3
      vertex -50.1871 73.3526 3
    endloop
  endfacet
  facet normal 0 0 1
    outer loop
      vertex -48.5451 -74.2553 3
      vertex -52 -69.5 3
      vertex -49.1289 -74.0241 3
    endloop
  endfacet
  facet normal 0 0 1
    outer loop
      vertex -52 69.5 3
      vertex -50.1871 73.3526 3
      vertex -50.6448 72.9227 3
    endloop
  endfacet
  facet normal 0 0 1
    outer loop
      vertex -49.1289 -74.0241 3
      vertex -52 -69.5 3
      vertex -49.6791 -73.7216 3
    endloop
  endfacet
  facet normal 0 0 1
    outer loop
      vertex -52 69.5 3
      vertex -50.6448 72.9227 3
      vertex -51.0451 72.4389 3
    endloop
  endfacet
  facet normal 0 0 1
    outer loop
      vertex -49.6791 -73.7216 3
      vertex -52 -69.5 3
      vertex -50.1871 -73.3526 3
    endloop
  endfacet
  facet normal 0 0 1
    outer loop
      vertex -52 69.5 3
      vertex -51.0451 72.4389 3
      vertex -51.3815 71.9088 3
    endloop
  endfacet
  facet normal 0 0 1
    outer loop
      vertex -50.1871 -73.3526 3
      vertex -52 -69.5 3
      vertex -50.6448 -72.9227 3
    endloop
  endfacet
  facet normal 0 0 1
    outer loop
      vertex -52 69.5 3
      vertex -51.3815 71.9088 3
      vertex -51.6489 71.3406 3
    endloop
  endfacet
  facet normal 0 0 1
    outer loop
      vertex -50.6448 -72.9227 3
      vertex -52 -69.5 3
      vertex -51.0451 -72.4389 3
    endloop
  endfacet
  facet normal 0 0 1
    outer loop
      vertex -52 69.5 3
      vertex -51.6489 71.3406 3
      vertex -51.8429 70.7434 3
    endloop
  endfacet
  facet normal 0 0 1
    outer loop
      vertex -51.0451 -72.4389 3
      vertex -52 -69.5 3
      vertex -51.3815 -71.9088 3
    endloop
  endfacet
  facet normal 0 0 1
    outer loop
      vertex -52 69.5 3
      vertex -51.8429 70.7434 3
      vertex -51.9606 70.1267 3
    endloop
  endfacet
  facet normal 0 0 1
    outer loop
      vertex -51.3815 -71.9088 3
      vertex -52 -69.5 3
      vertex -51.6489 -71.3406 3
    endloop
  endfacet
  facet normal 0 0 1
    outer loop
      vertex -51.6489 -71.3406 3
      vertex -52 -69.5 3
      vertex -51.8429 -70.7434 3
    endloop
  endfacet
  facet normal 0 0 1
    outer loop
      vertex -51.8429 -70.7434 3
      vertex -52 -69.5 3
      vertex -51.9606 -70.1267 3
    endloop
  endfacet
  facet normal 0.125348 0.992113 -0
    outer loop
      vertex 47.9369 74.4114 0
      vertex 47.314 74.4901 3
      vertex 47.9369 74.4114 3
    endloop
  endfacet
  facet normal 0.125348 0.992113 0
    outer loop
      vertex 47.314 74.4901 3
      vertex 47.9369 74.4114 0
      vertex 47.314 74.4901 0
    endloop
  endfacet
  facet normal 0 1 -0
    outer loop
      vertex 47.314 74.4901 0
      vertex -47.314 74.4901 3
      vertex 47.314 74.4901 3
    endloop
  endfacet
  facet normal 0 1 0
    outer loop
      vertex -47.314 74.4901 3
      vertex 47.314 74.4901 0
      vertex -47.314 74.4901 0
    endloop
  endfacet
  facet normal -0.125348 0.992113 0
    outer loop
      vertex -47.314 74.4901 0
      vertex -47.9369 74.4114 3
      vertex -47.314 74.4901 3
    endloop
  endfacet
  facet normal -0.125348 0.992113 0
    outer loop
      vertex -47.9369 74.4114 3
      vertex -47.314 74.4901 0
      vertex -47.9369 74.4114 0
    endloop
  endfacet
  facet normal 0.770462 -0.637486 0
    outer loop
      vertex 50.6448 -72.9227 3
      vertex 51.0451 -72.4389 0
      vertex 51.0451 -72.4389 3
    endloop
  endfacet
  facet normal 0.770462 -0.637486 0
    outer loop
      vertex 51.0451 -72.4389 0
      vertex 50.6448 -72.9227 3
      vertex 50.6448 -72.9227 0
    endloop
  endfacet
  facet normal 0.481784 0.87629 -0
    outer loop
      vertex 49.6791 73.7216 0
      vertex 49.1289 74.0241 3
      vertex 49.6791 73.7216 3
    endloop
  endfacet
  facet normal 0.481784 0.87629 0
    outer loop
      vertex 49.1289 74.0241 3
      vertex 49.6791 73.7216 0
      vertex 49.1289 74.0241 0
    endloop
  endfacet
  facet normal -0.770462 -0.637486 0
    outer loop
      vertex -50.6448 -72.9227 0
      vertex -51.0451 -72.4389 3
      vertex -51.0451 -72.4389 0
    endloop
  endfacet
  facet normal -0.770462 -0.637486 0
    outer loop
      vertex -51.0451 -72.4389 3
      vertex -50.6448 -72.9227 0
      vertex -50.6448 -72.9227 3
    endloop
  endfacet
  facet normal -0.684624 0.728896 0
    outer loop
      vertex -50.1871 73.3526 0
      vertex -50.6448 72.9227 3
      vertex -50.1871 73.3526 3
    endloop
  endfacet
  facet normal -0.684624 0.728896 0
    outer loop
      vertex -50.6448 72.9227 3
      vertex -50.1871 73.3526 0
      vertex -50.6448 72.9227 0
    endloop
  endfacet
  facet normal 0.248601 0.968606 -0
    outer loop
      vertex 48.5451 74.2553 0
      vertex 47.9369 74.4114 3
      vertex 48.5451 74.2553 3
    endloop
  endfacet
  facet normal 0.248601 0.968606 0
    outer loop
      vertex 47.9369 74.4114 3
      vertex 48.5451 74.2553 0
      vertex 47.9369 74.4114 0
    endloop
  endfacet
  facet normal 0.770462 0.637486 0
    outer loop
      vertex 51.0451 72.4389 3
      vertex 50.6448 72.9227 0
      vertex 50.6448 72.9227 3
    endloop
  endfacet
  facet normal 0.770462 0.637486 0
    outer loop
      vertex 50.6448 72.9227 0
      vertex 51.0451 72.4389 3
      vertex 51.0451 72.4389 0
    endloop
  endfacet
  facet normal -0.368203 0.929745 0
    outer loop
      vertex -48.5451 74.2553 0
      vertex -49.1289 74.0241 3
      vertex -48.5451 74.2553 3
    endloop
  endfacet
  facet normal -0.368203 0.929745 0
    outer loop
      vertex -49.1289 74.0241 3
      vertex -48.5451 74.2553 0
      vertex -49.1289 74.0241 0
    endloop
  endfacet
  facet normal -0.368203 -0.929745 0
    outer loop
      vertex -49.1289 -74.0241 0
      vertex -48.5451 -74.2553 3
      vertex -49.1289 -74.0241 3
    endloop
  endfacet
  facet normal -0.368203 -0.929745 -0
    outer loop
      vertex -48.5451 -74.2553 3
      vertex -49.1289 -74.0241 0
      vertex -48.5451 -74.2553 0
    endloop
  endfacet
  facet normal 1 -0 0
    outer loop
      vertex 52 -69.5 3
      vertex 52 69.5 0
      vertex 52 69.5 3
    endloop
  endfacet
  facet normal 1 0 0
    outer loop
      vertex 52 69.5 0
      vertex 52 -69.5 3
      vertex 52 -69.5 0
    endloop
  endfacet
  facet normal 0 -1 0
    outer loop
      vertex -47.314 -74.4901 0
      vertex 47.314 -74.4901 3
      vertex -47.314 -74.4901 3
    endloop
  endfacet
  facet normal 0 -1 -0
    outer loop
      vertex 47.314 -74.4901 3
      vertex -47.314 -74.4901 0
      vertex 47.314 -74.4901 0
    endloop
  endfacet
  facet normal -1 0 0
    outer loop
      vertex -52 -69.5 0
      vertex -52 69.5 3
      vertex -52 69.5 0
    endloop
  endfacet
  facet normal -1 -0 0
    outer loop
      vertex -52 69.5 3
      vertex -52 -69.5 0
      vertex -52 -69.5 3
    endloop
  endfacet
  facet normal -0.99803 0.0627451 0
    outer loop
      vertex -52 69.5 0
      vertex -51.9606 70.1267 3
      vertex -51.9606 70.1267 0
    endloop
  endfacet
  facet normal -0.99803 0.0627451 0
    outer loop
      vertex -51.9606 70.1267 3
      vertex -52 69.5 0
      vertex -52 69.5 3
    endloop
  endfacet
  facet normal 0.368203 0.929745 -0
    outer loop
      vertex 49.1289 74.0241 0
      vertex 48.5451 74.2553 3
      vertex 49.1289 74.0241 3
    endloop
  endfacet
  facet normal 0.368203 0.929745 0
    outer loop
      vertex 48.5451 74.2553 3
      vertex 49.1289 74.0241 0
      vertex 48.5451 74.2553 0
    endloop
  endfacet
  facet normal 0.587698 0.80908 -0
    outer loop
      vertex 50.1871 73.3526 0
      vertex 49.6791 73.7216 3
      vertex 50.1871 73.3526 3
    endloop
  endfacet
  facet normal 0.587698 0.80908 0
    outer loop
      vertex 49.6791 73.7216 3
      vertex 50.1871 73.3526 0
      vertex 49.6791 73.7216 0
    endloop
  endfacet
  facet normal -0.248601 0.968606 0
    outer loop
      vertex -47.9369 74.4114 0
      vertex -48.5451 74.2553 3
      vertex -47.9369 74.4114 3
    endloop
  endfacet
  facet normal -0.248601 0.968606 0
    outer loop
      vertex -48.5451 74.2553 3
      vertex -47.9369 74.4114 0
      vertex -48.5451 74.2553 0
    endloop
  endfacet
  facet normal 0.951076 0.308956 0
    outer loop
      vertex 51.8429 70.7434 3
      vertex 51.6489 71.3406 0
      vertex 51.6489 71.3406 3
    endloop
  endfacet
  facet normal 0.951076 0.308956 0
    outer loop
      vertex 51.6489 71.3406 0
      vertex 51.8429 70.7434 3
      vertex 51.8429 70.7434 0
    endloop
  endfacet
  facet normal 0.684624 0.728896 -0
    outer loop
      vertex 50.6448 72.9227 0
      vertex 50.1871 73.3526 3
      vertex 50.6448 72.9227 3
    endloop
  endfacet
  facet normal 0.684624 0.728896 0
    outer loop
      vertex 50.1871 73.3526 3
      vertex 50.6448 72.9227 0
      vertex 50.1871 73.3526 0
    endloop
  endfacet
  facet normal -0.99803 -0.0627451 0
    outer loop
      vertex -51.9606 -70.1267 0
      vertex -52 -69.5 3
      vertex -52 -69.5 0
    endloop
  endfacet
  facet normal -0.99803 -0.0627451 0
    outer loop
      vertex -52 -69.5 3
      vertex -51.9606 -70.1267 0
      vertex -51.9606 -70.1267 3
    endloop
  endfacet
  facet normal -0.770462 0.637486 0
    outer loop
      vertex -51.0451 72.4389 0
      vertex -50.6448 72.9227 3
      vertex -50.6448 72.9227 0
    endloop
  endfacet
  facet normal -0.770462 0.637486 0
    outer loop
      vertex -50.6448 72.9227 3
      vertex -51.0451 72.4389 0
      vertex -51.0451 72.4389 3
    endloop
  endfacet
  facet normal -0.481784 0.87629 0
    outer loop
      vertex -49.1289 74.0241 0
      vertex -49.6791 73.7216 3
      vertex -49.1289 74.0241 3
    endloop
  endfacet
  facet normal -0.481784 0.87629 0
    outer loop
      vertex -49.6791 73.7216 3
      vertex -49.1289 74.0241 0
      vertex -49.6791 73.7216 0
    endloop
  endfacet
  facet normal -0.587698 0.80908 0
    outer loop
      vertex -49.6791 73.7216 0
      vertex -50.1871 73.3526 3
      vertex -49.6791 73.7216 3
    endloop
  endfacet
  facet normal -0.587698 0.80908 0
    outer loop
      vertex -50.1871 73.3526 3
      vertex -49.6791 73.7216 0
      vertex -50.1871 73.3526 0
    endloop
  endfacet
  facet normal -0.684624 -0.728896 0
    outer loop
      vertex -50.6448 -72.9227 0
      vertex -50.1871 -73.3526 3
      vertex -50.6448 -72.9227 3
    endloop
  endfacet
  facet normal -0.684624 -0.728896 -0
    outer loop
      vertex -50.1871 -73.3526 3
      vertex -50.6448 -72.9227 0
      vertex -50.1871 -73.3526 0
    endloop
  endfacet
  facet normal 0.844336 -0.535814 0
    outer loop
      vertex 51.0451 -72.4389 3
      vertex 51.3815 -71.9088 0
      vertex 51.3815 -71.9088 3
    endloop
  endfacet
  facet normal 0.844336 -0.535814 0
    outer loop
      vertex 51.3815 -71.9088 0
      vertex 51.0451 -72.4389 3
      vertex 51.0451 -72.4389 0
    endloop
  endfacet
  facet normal 0.951076 -0.308956 0
    outer loop
      vertex 51.6489 -71.3406 3
      vertex 51.8429 -70.7434 0
      vertex 51.8429 -70.7434 3
    endloop
  endfacet
  facet normal 0.951076 -0.308956 0
    outer loop
      vertex 51.8429 -70.7434 0
      vertex 51.6489 -71.3406 3
      vertex 51.6489 -71.3406 0
    endloop
  endfacet
  facet normal 0.99803 0.0627451 0
    outer loop
      vertex 52 69.5 3
      vertex 51.9606 70.1267 0
      vertex 51.9606 70.1267 3
    endloop
  endfacet
  facet normal 0.99803 0.0627451 0
    outer loop
      vertex 51.9606 70.1267 0
      vertex 52 69.5 3
      vertex 52 69.5 0
    endloop
  endfacet
  facet normal 0.98227 0.187471 0
    outer loop
      vertex 51.9606 70.1267 3
      vertex 51.8429 70.7434 0
      vertex 51.8429 70.7434 3
    endloop
  endfacet
  facet normal 0.98227 0.187471 0
    outer loop
      vertex 51.8429 70.7434 0
      vertex 51.9606 70.1267 3
      vertex 51.9606 70.1267 0
    endloop
  endfacet
  facet normal -0.587698 -0.80908 0
    outer loop
      vertex -50.1871 -73.3526 0
      vertex -49.6791 -73.7216 3
      vertex -50.1871 -73.3526 3
    endloop
  endfacet
  facet normal -0.587698 -0.80908 -0
    outer loop
      vertex -49.6791 -73.7216 3
      vertex -50.1871 -73.3526 0
      vertex -49.6791 -73.7216 0
    endloop
  endfacet
  facet normal -0.481784 -0.87629 0
    outer loop
      vertex -49.6791 -73.7216 0
      vertex -49.1289 -74.0241 3
      vertex -49.6791 -73.7216 3
    endloop
  endfacet
  facet normal -0.481784 -0.87629 -0
    outer loop
      vertex -49.1289 -74.0241 3
      vertex -49.6791 -73.7216 0
      vertex -49.1289 -74.0241 0
    endloop
  endfacet
  facet normal -0.248601 -0.968606 0
    outer loop
      vertex -48.5451 -74.2553 0
      vertex -47.9369 -74.4114 3
      vertex -48.5451 -74.2553 3
    endloop
  endfacet
  facet normal -0.248601 -0.968606 -0
    outer loop
      vertex -47.9369 -74.4114 3
      vertex -48.5451 -74.2553 0
      vertex -47.9369 -74.4114 0
    endloop
  endfacet
  facet normal -0.125348 -0.992113 0
    outer loop
      vertex -47.9369 -74.4114 0
      vertex -47.314 -74.4901 3
      vertex -47.9369 -74.4114 3
    endloop
  endfacet
  facet normal -0.125348 -0.992113 -0
    outer loop
      vertex -47.314 -74.4901 3
      vertex -47.9369 -74.4114 0
      vertex -47.314 -74.4901 0
    endloop
  endfacet
  facet normal -0.98227 -0.187471 0
    outer loop
      vertex -51.8429 -70.7434 0
      vertex -51.9606 -70.1267 3
      vertex -51.9606 -70.1267 0
    endloop
  endfacet
  facet normal -0.98227 -0.187471 0
    outer loop
      vertex -51.9606 -70.1267 3
      vertex -51.8429 -70.7434 0
      vertex -51.8429 -70.7434 3
    endloop
  endfacet
  facet normal -0.904811 -0.425812 0
    outer loop
      vertex -51.3815 -71.9088 0
      vertex -51.6489 -71.3406 3
      vertex -51.6489 -71.3406 0
    endloop
  endfacet
  facet normal -0.904811 -0.425812 0
    outer loop
      vertex -51.6489 -71.3406 3
      vertex -51.3815 -71.9088 0
      vertex -51.3815 -71.9088 3
    endloop
  endfacet
  facet normal -0.844336 -0.535814 0
    outer loop
      vertex -51.0451 -72.4389 0
      vertex -51.3815 -71.9088 3
      vertex -51.3815 -71.9088 0
    endloop
  endfacet
  facet normal -0.844336 -0.535814 0
    outer loop
      vertex -51.3815 -71.9088 3
      vertex -51.0451 -72.4389 0
      vertex -51.0451 -72.4389 3
    endloop
  endfacet
  facet normal -0.98227 0.187471 0
    outer loop
      vertex -51.9606 70.1267 0
      vertex -51.8429 70.7434 3
      vertex -51.8429 70.7434 0
    endloop
  endfacet
  facet normal -0.98227 0.187471 0
    outer loop
      vertex -51.8429 70.7434 3
      vertex -51.9606 70.1267 0
      vertex -51.9606 70.1267 3
    endloop
  endfacet
  facet normal -0.951076 0.308956 0
    outer loop
      vertex -51.8429 70.7434 0
      vertex -51.6489 71.3406 3
      vertex -51.6489 71.3406 0
    endloop
  endfacet
  facet normal -0.951076 0.308956 0
    outer loop
      vertex -51.6489 71.3406 3
      vertex -51.8429 70.7434 0
      vertex -51.8429 70.7434 3
    endloop
  endfacet
  facet normal -0.904811 0.425812 0
    outer loop
      vertex -51.6489 71.3406 0
      vertex -51.3815 71.9088 3
      vertex -51.3815 71.9088 0
    endloop
  endfacet
  facet normal -0.904811 0.425812 0
    outer loop
      vertex -51.3815 71.9088 3
      vertex -51.6489 71.3406 0
      vertex -51.6489 71.3406 3
    endloop
  endfacet
  facet normal 0.904811 -0.425812 0
    outer loop
      vertex 51.3815 -71.9088 3
      vertex 51.6489 -71.3406 0
      vertex 51.6489 -71.3406 3
    endloop
  endfacet
  facet normal 0.904811 -0.425812 0
    outer loop
      vertex 51.6489 -71.3406 0
      vertex 51.3815 -71.9088 3
      vertex 51.3815 -71.9088 0
    endloop
  endfacet
  facet normal 0.98227 -0.187471 0
    outer loop
      vertex 51.8429 -70.7434 3
      vertex 51.9606 -70.1267 0
      vertex 51.9606 -70.1267 3
    endloop
  endfacet
  facet normal 0.98227 -0.187471 0
    outer loop
      vertex 51.9606 -70.1267 0
      vertex 51.8429 -70.7434 3
      vertex 51.8429 -70.7434 0
    endloop
  endfacet
  facet normal 0.481784 -0.87629 0
    outer loop
      vertex 49.1289 -74.0241 0
      vertex 49.6791 -73.7216 3
      vertex 49.1289 -74.0241 3
    endloop
  endfacet
  facet normal 0.481784 -0.87629 0
    outer loop
      vertex 49.6791 -73.7216 3
      vertex 49.1289 -74.0241 0
      vertex 49.6791 -73.7216 0
    endloop
  endfacet
  facet normal 0.684624 -0.728896 0
    outer loop
      vertex 50.1871 -73.3526 0
      vertex 50.6448 -72.9227 3
      vertex 50.1871 -73.3526 3
    endloop
  endfacet
  facet normal 0.684624 -0.728896 0
    outer loop
      vertex 50.6448 -72.9227 3
      vertex 50.1871 -73.3526 0
      vertex 50.6448 -72.9227 0
    endloop
  endfacet
  facet normal 0.368203 -0.929745 0
    outer loop
      vertex 48.5451 -74.2553 0
      vertex 49.1289 -74.0241 3
      vertex 48.5451 -74.2553 3
    endloop
  endfacet
  facet normal 0.368203 -0.929745 0
    outer loop
      vertex 49.1289 -74.0241 3
      vertex 48.5451 -74.2553 0
      vertex 49.1289 -74.0241 0
    endloop
  endfacet
  facet normal 0.125348 -0.992113 0
    outer loop
      vertex 47.314 -74.4901 0
      vertex 47.9369 -74.4114 3
      vertex 47.314 -74.4901 3
    endloop
  endfacet
  facet normal 0.125348 -0.992113 0
    outer loop
      vertex 47.9369 -74.4114 3
      vertex 47.314 -74.4901 0
      vertex 47.9369 -74.4114 0
    endloop
  endfacet
  facet normal 0.904811 0.425812 0
    outer loop
      vertex 51.6489 71.3406 3
      vertex 51.3815 71.9088 0
      vertex 51.3815 71.9088 3
    endloop
  endfacet
  facet normal 0.904811 0.425812 0
    outer loop
      vertex 51.3815 71.9088 0
      vertex 51.6489 71.3406 3
      vertex 51.6489 71.3406 0
    endloop
  endfacet
  facet normal -0.951076 -0.308956 0
    outer loop
      vertex -51.6489 -71.3406 0
      vertex -51.8429 -70.7434 3
      vertex -51.8429 -70.7434 0
    endloop
  endfacet
  facet normal -0.951076 -0.308956 0
    outer loop
      vertex -51.8429 -70.7434 3
      vertex -51.6489 -71.3406 0
      vertex -51.6489 -71.3406 3
    endloop
  endfacet
  facet normal -0.844336 0.535814 0
    outer loop
      vertex -51.3815 71.9088 0
      vertex -51.0451 72.4389 3
      vertex -51.0451 72.4389 0
    endloop
  endfacet
  facet normal -0.844336 0.535814 0
    outer loop
      vertex -51.0451 72.4389 3
      vertex -51.3815 71.9088 0
      vertex -51.3815 71.9088 3
    endloop
  endfacet
  facet normal 0.99803 -0.0627451 0
    outer loop
      vertex 51.9606 -70.1267 3
      vertex 52 -69.5 0
      vertex 52 -69.5 3
    endloop
  endfacet
  facet normal 0.99803 -0.0627451 0
    outer loop
      vertex 52 -69.5 0
      vertex 51.9606 -70.1267 3
      vertex 51.9606 -70.1267 0
    endloop
  endfacet
  facet normal 0.587698 -0.80908 0
    outer loop
      vertex 49.6791 -73.7216 0
      vertex 50.1871 -73.3526 3
      vertex 49.6791 -73.7216 3
    endloop
  endfacet
  facet normal 0.587698 -0.80908 0
    outer loop
      vertex 50.1871 -73.3526 3
      vertex 49.6791 -73.7216 0
      vertex 50.1871 -73.3526 0
    endloop
  endfacet
  facet normal 0.248601 -0.968606 0
    outer loop
      vertex 47.9369 -74.4114 0
      vertex 48.5451 -74.2553 3
      vertex 47.9369 -74.4114 3
    endloop
  endfacet
  facet normal 0.248601 -0.968606 0
    outer loop
      vertex 48.5451 -74.2553 3
      vertex 47.9369 -74.4114 0
      vertex 48.5451 -74.2553 0
    endloop
  endfacet
  facet normal 0.844336 0.535814 0
    outer loop
      vertex 51.3815 71.9088 3
      vertex 51.0451 72.4389 0
      vertex 51.0451 72.4389 3
    endloop
  endfacet
  facet normal 0.844336 0.535814 0
    outer loop
      vertex 51.0451 72.4389 0
      vertex 51.3815 71.9088 3
      vertex 51.3815 71.9088 0
    endloop
  endfacet
endsolid OpenSCAD_Model
